<?xml version="1.0" encoding="utf-8"?>
<!-- Generator: Adobe Illustrator 23.0.3, SVG Export Plug-In . SVG Version: 6.00 Build 0)  -->
<svg version="1.1" xmlns="http://www.w3.org/2000/svg" xmlns:xlink="http://www.w3.org/1999/xlink" x="0px" y="0px"
	 viewBox="0 0 577.53 602.45" style="enable-background:new 0 0 577.53 602.45;" xml:space="preserve">
<style type="text/css">
	.st0{fill:#FDDDD2;stroke:#000000;stroke-miterlimit:10;}
	.st1{fill:#FBFCFC;}
	.st2{fill:none;stroke:#000000;stroke-miterlimit:10;}
	.st3{fill:#3E58A7;}
	.st4{fill:#FFFFFF;stroke:#231F20;stroke-miterlimit:10;}
	.st5{fill:none;stroke:#231F20;stroke-miterlimit:10;}
	.st6{fill:#ACDEEA;stroke:#020202;stroke-miterlimit:10;}
	.st7{fill:#442E16;}
	.st8{fill:#FFFFFF;}
	.st9{fill:#AFE1F1;}
	.st10{fill:none;}
	.st11{fill:#FFFFFF;stroke:#000000;stroke-miterlimit:10;}
	.st12{fill:#AFE1F1;stroke:#020202;stroke-miterlimit:10;}
	.st13{fill:#231F20;}
	.st14{fill:none;stroke:#FFFFFF;stroke-miterlimit:10;}
	.st15{fill:#C93E3D;}
	.st16{fill:#853C3D;}
	.st17{fill:#FCD061;}
</style>
<g id="Layer_4">
</g>
<g id="Layer_3">
</g>
<g id="Layer_5">
</g>
<g id="Layer_2">
</g>
<g id="Layer_1">
	<g>
		<polygon class="st0" points="339.83,510.33 322.08,499.33 311.91,513.72 329.84,524.95 		"/>
		<g>
			<path class="st1" d="M297.83,563.58l-1.21-44.88c-2.54,1.42-5.32,3.26-8.29,5.63l2.25,47.08h76.5c0,0,0.48-3.23-0.11-7.38
				L297.83,563.58z"/>
			<path class="st2" d="M297.83,563.58l-1.21-44.88c-2.54,1.42-5.32,3.26-8.29,5.63l2.25,47.08h76.5c0,0,0.48-3.23-0.11-7.38
				L297.83,563.58z"/>
			<path class="st3" d="M366.97,564.03c-1.31-9.27-7.95-23.13-37.14-15.7l-0.25-23l0.26-0.38l-17.93-11.23l-0.08,0.11
				c0,0-6-0.31-15.21,4.87l1.21,44.88L366.97,564.03z"/>
			<path class="st2" d="M366.97,564.03c-1.31-9.27-7.95-23.13-37.14-15.7l-0.25-23l0.26-0.38l-17.93-11.23l-0.08,0.11
				c0,0-6-0.31-15.21,4.87l1.21,44.88L366.97,564.03z"/>
		</g>
		<g>
			<polygon class="st0" points="427,520.74 403,522.74 403.72,542.08 426.42,542.08 			"/>
			<path class="st0" d="M470.67,545.74l-16.55,25.63l3.55,0.04c0,0,43.67-4,38-33.67C495.67,537.74,488.67,522.08,470.67,545.74z"/>
			<path class="st4" d="M462.67,544.41l-14,18.33l-49.61-1.46c-0.94,3.2-1.51,6.59-1.05,9.46l56.12,0.63l16.55-25.63
				c18-23.67,25-8,25-8s-3.67-8.93-14.1-10.93C475.98,528.34,469.47,533.15,462.67,544.41z"/>
			<path class="st3" d="M439.67,545.41l-13.33-0.33l0.08-3h-22.7l0.28,7.67c0,0-3.15,5.44-4.95,11.54l49.61,1.46l14-18.33
				c6.8-11.26,13.31-16.07,18.9-17.59C472.88,525.15,459.51,528.3,439.67,545.41z"/>
			<path class="st5" d="M439.67,545.41l-13.33-0.33l0.08-3h-22.7l0.28,7.67c0,0-3.15,5.44-4.95,11.54l49.61,1.46l14-18.33
				c6.8-11.26,13.31-16.07,18.9-17.59C472.88,525.15,459.51,528.3,439.67,545.41z"/>
		</g>
		<path class="st6" d="M458.33,293.41c0,0-22,127.33-97.33,231.33l-44-28.67c0,0,91.33-136.67,92.67-200L458.33,293.41z"/>
		<path class="st3" d="M420.36,93.58c7.29-19.37,0.26-40.42-16.52-47.98c-15.25-6.87-32.93,0.26-42.71,12.91
			c-4.83,6.25-8.01,13.78-8.91,21.63c-0.99,8.62,0.16,17.29,0.37,25.92c0.18,7.35-0.23,14.84-1.46,22.09
			c-0.81,4.79-2.21,9.47-3.78,14.06c-1.49,4.34-3.26,8.45-3.26,13.12c0,16.43,13.82,29.75,30.88,29.75
			c14.85,0,27.25-10.1,30.2-23.56l7.67-0.19h21.75l8-54L420.36,93.58z"/>
		<path class="st7" d="M420.36,93.58c7.29-19.37,0.26-40.42-16.52-47.98c-15.25-6.87-32.93,0.26-42.71,12.91
			c-4.83,6.25-8.01,13.78-8.91,21.63c-0.99,8.62,0.16,17.29,0.37,25.92c0.18,7.35-0.23,14.84-1.46,22.09
			c-0.81,4.79-2.21,9.47-3.78,14.06c-1.49,4.34-3.26,8.45-3.26,13.12c0,16.43,13.82,29.75,30.88,29.75
			c14.85,0,27.25-10.1,30.2-23.56l7.67-0.19h21.75l8-54L420.36,93.58z"/>
		<path class="st2" d="M420.36,93.58c7.29-19.37,0.26-40.42-16.52-47.98c-15.25-6.87-32.93,0.26-42.71,12.91
			c-4.83,6.25-8.01,13.78-8.91,21.63c-0.99,8.62,0.16,17.29,0.37,25.92c0.18,7.35-0.23,14.84-1.46,22.09
			c-0.81,4.79-2.21,9.47-3.78,14.06c-1.49,4.34-3.26,8.45-3.26,13.12c0,16.43,13.82,29.75,30.88,29.75
			c14.85,0,27.25-10.1,30.2-23.56l7.67-0.19h21.75l8-54L420.36,93.58z"/>
		<path class="st2" d="M420.36,93.58c7.29-19.37,0.26-40.42-16.52-47.98c-15.25-6.87-32.93,0.26-42.71,12.91
			c-4.83,6.25-8.01,13.78-8.91,21.63c-0.99,8.62,0.16,17.29,0.37,25.92c0.18,7.35-0.23,14.84-1.46,22.09
			c-0.81,4.79-2.21,9.47-3.78,14.06c-1.49,4.34-3.26,8.45-3.26,13.12c0,16.43,13.82,29.75,30.88,29.75
			c14.85,0,27.25-10.1,30.2-23.56l7.67-0.19h21.75l8-54L420.36,93.58z"/>
		<polygon class="st0" points="443.91,149.06 436.33,147.83 437.33,137.83 413.58,140.58 412.33,146.58 400.59,144.84 
			425.33,183.08 		"/>
		<path class="st8" d="M514.08,194.58l-10.5,27l-21.7-50.51c-4.55-10.58-14.18-18.11-25.54-19.97l-12.43-2.03l-18.57,34.01
			l-24.74-38.24l-3.6-0.53c-11.03-1.63-21.9,3.86-27.12,13.72l-31.79,60.05l0.16,0.11l-10.62,20.34
			c-3.91,7.49-3.65,16.47,0.69,23.72v0c6.71,11.21,21.08,15.11,32.54,8.82l12.15-6.67l-7.42,32.44l100.25-3l-3-68.25l33.41,46.59
			c6.12,8.54,19.25,6.98,23.21-2.75l23.63-58.09L514.08,194.58z"/>
		<path class="st9" d="M514.08,194.58l-10.5,27l-21.7-50.51c-4.55-10.58-14.18-18.11-25.54-19.97l-12.43-2.03l-18.57,34.01
			l-24.74-38.24l-3.6-0.53c-11.03-1.63-21.9,3.86-27.12,13.72l-31.79,60.05l0.16,0.11l-10.62,20.34
			c-3.91,7.49-3.65,16.47,0.69,23.72v0c6.71,11.21,20.38,13.76,31.83,7.47l12.86-5.32l-7.42,32.44l100.25-3l-3-68.25l33.41,46.59
			c6.12,8.54,19.25,6.98,23.21-2.75l23.63-58.09L514.08,194.58z"/>
		<rect x="383.56" y="248.38" class="st2" width="30.67" height="32"/>
		<path class="st2" d="M514.08,194.58l-10.5,27l-21.7-50.51c-4.55-10.58-14.18-18.11-25.54-19.97l-12.43-2.03l-18.57,34.01
			l-24.74-38.24l-3.6-0.53c-11.03-1.63-21.9,3.86-27.12,13.72l-31.79,60.05l0.16,0.11l-10.62,20.34
			c-3.91,7.49-3.65,16.47,0.69,23.72v0c3.01,4.85,6.8,8.16,11.01,9.89c5.84,2.4,12.48,1.75,18.9-2.08l14.77-5.65l-7.42,32.44
			l100.25-3l-3-68.25l33.41,46.59c6.12,8.54,19.25,6.98,23.21-2.75l23.63-58.09L514.08,194.58z"/>
		<polyline class="st0" points="523.83,186.2 519.44,197.66 534.58,206.33 538.08,196.83 		"/>
		<path class="st0" d="M535.64,197.6c5.86-2.44,9.51-7.93,9.9-13.86l3.93-28.59c0.44-2.94-1.64-5.65-4.6-5.98
			c-2.42-0.27-4.66,1.17-5.48,3.37c0.34-2.87-1.72-5.49-4.61-5.81l0,0c-2.42-0.27-4.66,1.17-5.48,3.37
			c0.34-2.87-1.72-5.49-4.61-5.81c-2.78-0.31-5.32,1.63-5.74,4.4L515,172.56l-4.82-6.41c-1.81-2.36-5.21-2.74-7.49-0.84
			c-2.15,1.79-2.52,4.96-0.82,7.19l13.38,17.92c2.58,4.75,7.29,7.76,12.41,8.33"/>
		<path class="st0" d="M515,172.56c0,0,6.58-2.41,13.38,5.39"/>
		<line class="st0" x1="529.31" y1="150.11" x2="527.64" y2="163.13"/>
		<line class="st0" x1="539.19" y1="152.84" x2="537.52" y2="165.86"/>
		<line class="st0" x1="524.77" y1="163.62" x2="539.18" y2="165.88"/>
		<path class="st9" d="M333.58,246.2l33.28-18.53l15.23,32.29L351,273.74c0,0-4.04,1.33-10.04-1.04"/>
		<path class="st2" d="M333.58,246.2l33.28-18.53l15.23,32.29L351,273.74c0,0-4.04,1.33-10.04-1.04"/>
		<path d="M382.09,259.96L382.09,259.96c-2.11,1-4.66,0.08-5.66-2.03l-11.6-24.61c-1-2.11-0.08-4.66,2.03-5.66h0
			c2.11-1,4.66-0.08,5.66,2.03l11.6,24.61C385.12,256.42,384.21,258.97,382.09,259.96z"/>
		<path class="st10" d="M382.09,259.96L382.09,259.96c-2.11,1-4.66,0.08-5.66-2.03l-11.6-24.61c-1-2.11-0.08-4.66,2.03-5.66h0
			c2.11-1,4.66-0.08,5.66,2.03l11.6,24.61C385.12,256.42,384.21,258.97,382.09,259.96z"/>
		<path class="st2" d="M382.09,259.96L382.09,259.96c-2.11,1-4.66,0.08-5.66-2.03l-11.6-24.61c-1-2.11-0.08-4.66,2.03-5.66h0
			c2.11-1,4.66-0.08,5.66,2.03l11.6,24.61C385.12,256.42,384.21,258.97,382.09,259.96z"/>
		<circle class="st0" cx="430.21" cy="96.97" r="46.75"/>
		<g>
			<ellipse cx="437.13" cy="98.29" rx="1.56" ry="4.44"/>
			<ellipse cx="443.71" cy="97.83" rx="1.56" ry="4.44"/>
			<line class="st2" x1="443.04" y1="91.41" x2="450.54" y2="91.41"/>
			<line class="st2" x1="431.42" y1="91.41" x2="438.92" y2="91.41"/>
			<path class="st2" d="M453.22,113.04c0,0-8.28-2.03-3.99-10.38"/>
			<g>
				<path d="M434.58,110.58c0.63,4.24,2.85,11.15,10.63,11.5l0,0c1.47-0.07,2.62-1.29,2.6-2.75l-0.07-8.75H434.58z"/>
				<path class="st2" d="M434.58,110.58c0.63,4.24,2.85,11.15,10.63,11.5l0,0c1.47-0.07,2.62-1.29,2.6-2.75l-0.07-8.75H434.58z"/>
				<path class="st11" d="M447.71,107.33h-13.38c0,0-0.03,1.36,0.25,3.25h13.16L447.71,107.33z"/>
			</g>
			<path class="st0" d="M431.48,102.19c0,0,7.11,4.7,0.26,11.11"/>
		</g>
		<g>
			<path class="st7" d="M446.5,57.58c0,0,4.53,26.09,29.59,36.93c1.13,0.49,2.41-0.33,2.41-1.56c0-0.01,0-0.02,0-0.03
				c0-27.45-21.62-49.7-48.29-49.7s-48.29,22.25-48.29,49.7c0,1.06,0.04,2.11,0.11,3.16C389.44,93,433.46,83.55,446.5,57.58z"/>
			<path class="st2" d="M446.5,57.58c0,0,4.53,26.09,29.59,36.93c1.13,0.49,2.41-0.33,2.41-1.56c0-0.01,0-0.02,0-0.03
				c0-27.45-21.62-49.7-48.29-49.7s-48.29,22.25-48.29,49.7c0,1.06,0.04,2.11,0.11,3.16C389.44,93,433.46,83.55,446.5,57.58z"/>
		</g>
		<polygon class="st12" points="370.33,296.74 395,524.08 449.67,518.74 423.5,295.24 		"/>
		<line class="st0" x1="514.08" y1="194.58" x2="496.33" y2="241.41"/>
		<path class="st9" d="M462.83,225.58L462,208.74c0,0,12.33-15.67-2.67-33"/>
		<path class="st5" d="M462.83,225.58L462,208.74c0,0,12.33-15.67-2.67-33"/>
		<path class="st2" d="M329.83,548.33c0,0-9.83,1.92-15.17,8.58"/>
		<path class="st9" d="M338.69,271.97"/>
		<line class="st2" x1="339.33" y1="272.13" x2="343.1" y2="273.44"/>
		<g>
			<path class="st0" d="M352.73,267.64c7.86,6.26,19.07,5.44,25.95-1.59l21.37-16.32c2.69-2.02,3.32-5.8,1.42-8.58
				c-2.02-2.95-6.08-3.62-8.94-1.49l-7.69,5.82l3.29-28.89c0.42-3.34-1.87-6.42-5.19-6.98c-3.45-0.58-6.69,1.77-7.25,5.19
				c-0.22-2.82-2.33-5.21-5.22-5.7l0,0c-3.45-0.58-6.69,1.77-7.25,5.19c-0.22-2.82-2.33-5.21-5.22-5.7
				c-3.52-0.59-6.83,1.86-7.28,5.4l-4.86,34.35C344.35,255.34,346.77,262.89,352.73,267.64z"/>
			<path class="st0" d="M384.84,245.49c0,0-6.81-4.95-17.24,1.83"/>
			<line class="st0" x1="375.69" y1="214.82" x2="373.33" y2="230.43"/>
			<line class="st0" x1="363.36" y1="214.72" x2="361.01" y2="230.34"/>
			<line class="st0" x1="376.49" y1="231.94" x2="359.09" y2="229.81"/>
		</g>
		<polygon class="st11" points="413.23,164.71 433.73,167.54 425.33,183.08 		"/>
		<path class="st2" d="M425.72,122.65c0,0-22.49-3.1-36.49-27.44c-2-3.47-8.85,4.66-6.55,7.94c12.16,17.29,15.55,27.39,42.38,37.89"
			/>
		<path class="st11" d="M450.86,149.88h-23.09c-4.39,0-7.96-3.56-7.96-7.96V129.2c0-4.39,3.56-7.96,7.96-7.96h23.09
			c4.39,0,7.96,3.56,7.96,7.96v12.73C458.81,146.32,455.25,149.88,450.86,149.88z"/>
		<path class="st0" d="M387.35,107.19c-3.57,1.76-7.9,0.28-9.65-3.29c-1.76-3.57-0.28-7.9,3.29-9.65c3.57-1.76,7.9-0.28,9.65,3.29"
			/>
		<path class="st2" d="M456.9,124.04c0,0,18.08-3,19.58-20.17"/>
	</g>
	<g>
		<g>
			<rect x="111.77" y="310.5" class="st3" width="43.34" height="212.67"/>
			<rect x="155.11" y="310.5" class="st3" width="44.67" height="212.67"/>
		</g>
		<g>
			<rect x="111.77" y="310.5" class="st2" width="43.34" height="212.67"/>
			<rect x="155.11" y="310.5" class="st2" width="44.67" height="212.67"/>
		</g>
		<g>
			<path class="st4" d="M65.57,571.83c0.21,2.84,0.53,4.67,0.53,4.67h89.67l-0.06-4.67H65.57z"/>
			<path class="st4" d="M155.11,523.17l-24.67-0.33v24.33c-14.67,1.33-24-2-24-2c-9-4.33-17.33-4.67-17.33-4.67
				c-23.56-2.88-24.3,20.96-23.53,31.33h90.14L155.11,523.17z"/>
		</g>
		<g>
			<path class="st4" d="M245.26,571.83c-0.21,2.84-0.53,4.67-0.53,4.67h-89.67l0.06-4.67H245.26z"/>
			<path class="st13" d="M155.73,523.17l24.67-0.33v24.33c14.67,1.33,24-2,24-2c9-4.33,17.33-4.67,17.33-4.67
				c23.56-2.88,24.3,20.96,23.53,31.33h-90.14L155.73,523.17z"/>
			<path class="st13" d="M155.11,523.17l-24.67-0.33v24.33c-14.67,1.33-24-2-24-2c-9-4.33-17.33-4.67-17.33-4.67
				c-23.56-2.88-24.3,20.96-23.53,31.33h90.14L155.11,523.17z"/>
			<path class="st13" d="M155.73,523.17l24.67-0.33v24.33c14.67,1.33,24-2,24-2c9-4.33,17.33-4.67,17.33-4.67
				c23.56-2.88,24.3,20.96,23.53,31.33h-90.14L155.73,523.17z"/>
			<path class="st2" d="M155.11,523.17l-24.67-0.33v24.33c-14.67,1.33-24-2-24-2c-9-4.33-17.33-4.67-17.33-4.67
				c-23.56-2.88-24.3,20.96-23.53,31.33h90.14L155.11,523.17z"/>
			<path class="st2" d="M155.11,523.17l-24.67-0.33v24.33c-14.67,1.33-24-2-24-2c-9-4.33-17.33-4.67-17.33-4.67
				c-23.56-2.88-24.3,20.96-23.53,31.33h90.14L155.11,523.17z"/>
			<path class="st2" d="M155.73,523.17l24.67-0.33v24.33c14.67,1.33,24-2,24-2c9-4.33,17.33-4.67,17.33-4.67
				c23.56-2.88,24.3,20.96,23.53,31.33h-90.14L155.73,523.17z"/>
		</g>
		<line class="st14" x1="155.11" y1="523.17" x2="155.11" y2="572.17"/>
		<path class="st2" d="M225.16,168.56"/>
		<path class="st8" d="M256.35,223.83l-31.2-55.28c-15.94-21.65-41.59-35.7-70.54-35.7c-48.34,0-87.54,39.19-87.54,87.54
			c0,18.23,5.58,35.16,15.11,49.17V401.4h143.46v-75l30.83-55.36C264.67,256.35,264.62,238.47,256.35,223.83z"/>
		<path class="st2" d="M256.35,223.83l-31.2-55.28c-15.94-21.65-41.59-35.7-70.54-35.7c-48.34,0-87.54,39.19-87.54,87.54
			c0,18.23,5.58,35.16,15.11,49.17V401.4h143.46v-75l30.83-55.36C264.67,256.35,264.62,238.47,256.35,223.83z"/>
		<line class="st2" x1="225.16" y1="330.4" x2="225.16" y2="187.4"/>
		<path class="st8" d="M61.66,296.4L61.66,296.4c-11.32,0-20.5-9.18-20.5-20.5v-76.5h41v76.5C82.16,287.22,72.98,296.4,61.66,296.4z
			"/>
		<path class="st2" d="M61.66,296.4L61.66,296.4c-11.32,0-20.5-9.18-20.5-20.5v-76.5h41v76.5C82.16,287.22,72.98,296.4,61.66,296.4z
			"/>
		<path d="M79.91,203.15H44.16c-1.65,0-3-1.35-3-3l0,0c0-1.65,1.35-3,3-3h35.75c1.65,0,3,1.35,3,3l0,0
			C82.91,201.8,81.56,203.15,79.91,203.15z"/>
		<path class="st2" d="M79.91,203.15H44.16c-1.65,0-3-1.35-3-3l0,0c0-1.65,1.35-3,3-3h35.75c1.65,0,3,1.35,3,3l0,0
			C82.91,201.8,81.56,203.15,79.91,203.15z"/>
		<rect x="49.66" y="185.65" class="st0" width="32.25" height="17.5"/>
		<path class="st0" d="M72.82,188.65H57.8c-9.75,0-17.65-7.9-17.65-17.65v-15.85h45.91c4.19,0,7.59,3.4,7.59,7.59v5.08
			C93.66,179.32,84.33,188.65,72.82,188.65z"/>
		<path class="st0" d="M65.16,157.15v-25c0-5.34,4.33-9.67,9.67-9.67h0c5.34,0,9.67,4.33,9.67,9.67v23.17"/>
		<path class="st0" d="M56.24,163.15L56.24,163.15c-4.92,0-8.92-3.99-8.92-8.92v-13.9c0-4.15,3.36-7.52,7.52-7.52h5.9
			c2.44,0,4.42,1.98,4.42,4.42v16.99C65.16,159.15,61.16,163.15,56.24,163.15z"/>
		<path class="st0" d="M40.41,162.65L40.41,162.65c-3.91,0-7.08-3.17-7.08-7.08V151c0-7.47,6.05-13.52,13.52-13.52h0.65v18.08
			C47.49,159.48,44.32,162.65,40.41,162.65z"/>
		<path class="st0" d="M93.49,170.31v-8.54c0-3.57-2.89-6.46-6.46-6.46H72.66c-4.14,0-7.5,3.36-7.5,7.5v0c0,4.14,3.36,7.5,7.5,7.5
			h10.58"/>
		<path class="st0" d="M66.66,167.65c0,0-11.5,2.83-10.83,16"/>
		<path class="st2" d="M133.49,135.4l21.33,49l18.33-50C173.16,134.4,142.57,131.65,133.49,135.4z"/>
		<polygon class="st8" points="139.82,130.23 135.41,139.4 141.41,153.98 154.82,134.15 166.66,151.9 173.16,134.4 164.91,129.15 		
			"/>
		<polygon class="st2" points="139.82,130.23 135.41,139.4 141.41,153.98 154.82,134.15 166.66,151.9 173.16,134.4 164.91,129.15 		
			"/>
		<polygon class="st15" points="149.49,143.06 152.32,148.4 146.41,165.52 154.82,184.4 162.03,165.4 156.82,148.48 159.57,142.81 
			154.82,134.15 		"/>
		<polygon class="st2" points="149.49,143.06 152.32,148.4 146.41,165.52 154.82,184.4 162.03,165.4 156.82,148.48 159.57,142.81 
			154.82,134.15 		"/>
		<circle class="st0" cx="105.82" cy="96.23" r="8.83"/>
		<circle class="st0" cx="202.66" cy="96.23" r="8.83"/>
		<circle class="st0" cx="153.66" cy="88.32" r="46.75"/>
		<g>
			<path class="st16" d="M153.59,32.96c-27.4,0-49.61,20.15-49.61,45.01c0,5.49,1.09,10.74,3.07,15.61l4.9-10.51
				c0,0,42.1-1.33,55.03-22c0,0,10.28,24.67,30.5,23l3.14,8.24c1.67-4.5,2.58-9.32,2.58-14.33
				C203.2,53.11,180.99,32.96,153.59,32.96z"/>
		</g>
		<g>
			<path class="st2" d="M153.59,32.96c-27.4,0-49.61,20.15-49.61,45.01c0,5.49,1.09,10.74,3.07,15.61l4.9-10.51
				c0,0,42.1-1.33,55.03-22c0,0,10.28,24.67,30.5,23l3.14,8.24c1.67-4.5,2.58-9.32,2.58-14.33
				C203.2,53.11,180.99,32.96,153.59,32.96z"/>
		</g>
		<path class="st2" d="M107.82,82.56c0,0,4.17,1.17,15.33-0.67"/>
		<path class="st2" d="M193.45,83.92c0,0,5.06,0.44,7.44-0.12"/>
		<path class="st2" d="M169.82,52.23c0,0,1.5,9.5-15.12,20.12"/>
		<g>
			<ellipse cx="149.8" cy="90.04" rx="1.56" ry="4.44"/>
			<ellipse cx="157.43" cy="90.04" rx="1.56" ry="4.44"/>
			<line class="st2" x1="155.49" y1="80.98" x2="162.99" y2="80.98"/>
			<line class="st2" x1="144.99" y1="80.98" x2="152.49" y2="80.98"/>
			<path class="st2" d="M145.24,97.4c0,0,9.5,4.88,16.88-0.25"/>
			<path class="st0" d="M166.46,101.53c0,0-8.28-2.03-3.99-10.38"/>
		</g>
		<polyline class="st2" points="108.41,145.9 120.91,165.9 129.91,165.15 123.91,169.65 154.82,212.4 154.82,184.4 		"/>
		<polyline class="st2" points="191.91,141.9 183.91,162.15 173.66,163.15 181.16,166.65 154.82,206.4 		"/>
		<line class="st2" x1="154.82" y1="201.9" x2="154.82" y2="400.9"/>
		<path class="st2" d="M175.81,202.53h32.57v21.48c0,6.71-5.44,12.15-12.15,12.15h-8.27c-6.71,0-12.15-5.44-12.15-12.15V202.53z"/>
		<g>
			<path class="st2" d="M123.61,337.83h-10.61c-8.39,0-15.2-6.8-15.2-15.2V295.5h41v27.14
				C138.81,331.03,132.01,337.83,123.61,337.83z"/>
			<line class="st2" x1="97.98" y1="311.17" x2="138.48" y2="311.17"/>
		</g>
		<g>
			<path class="st2" d="M198.61,337.83h-10.61c-8.39,0-15.2-6.8-15.2-15.2V295.5h41v27.14
				C213.81,331.03,207.01,337.83,198.61,337.83z"/>
			<line class="st2" x1="172.98" y1="311.17" x2="213.48" y2="311.17"/>
		</g>
	</g>
	<g>
		<path class="st17" d="M237.22,109.88c0,0,6.63,19.42-5.37,36.92c0,0-18.75,20.75-5.5,33.25l111,7c0,0,12.75-22.75,0.25-45.75
			c0,0-10.25-16.5-3-36l-45.78-1.6l-25.22,0.1L237.22,109.88z"/>
		<path class="st2" d="M237.22,109.88c0,0,6.63,19.42-5.37,36.92c0,0-18.75,20.75-5.5,33.25l111,7c0,0,12.75-22.75,0.25-45.75
			c0,0-10.25-16.5-3-36l-45.78-1.6l-25.22,0.1L237.22,109.88z"/>
		<g>
			<path class="st4" d="M196.97,585.48c0.21,2.84,0.53,4.67,0.53,4.67h89.67l-0.06-4.67H196.97z"/>
			<path class="st13" d="M286.51,536.82l-24.67-0.33v24.33c-14.67,1.33-24-2-24-2c-9-4.33-17.33-4.67-17.33-4.67
				c-23.56-2.88-24.3,20.96-23.53,31.33h90.14L286.51,536.82z"/>
		</g>
		<path class="st4" d="M412.57,571.89c0.17,2.84,0.1,4.7,0.1,4.7l-88.85,12.06l-0.57-4.63L412.57,571.89z"/>
		<path class="st13" d="M317.3,535.72l24.4-3.65l3.27,24.11c14.71-0.65,23.51-5.21,23.51-5.21c8.34-5.5,16.55-6.96,16.55-6.96
			c22.96-6.02,26.9,17.5,27.53,27.88l-89.32,12.13L317.3,535.72z"/>
		<path class="st13" d="M286.51,536.82l-24.67-0.33v24.33c-14.67,1.33-24-2-24-2c-9-4.33-17.33-4.67-17.33-4.67
			c-23.56-2.88-24.3,20.96-23.53,31.33h90.14L286.51,536.82z"/>
		<path class="st13" d="M317.3,535.72l24.4-3.65l3.27,24.11c14.71-0.65,23.51-5.21,23.51-5.21c8.34-5.5,16.55-6.96,16.55-6.96
			c22.96-6.02,26.9,17.5,27.53,27.88l-89.32,12.13L317.3,535.72z"/>
		<path class="st13" d="M286.51,536.82l-24.67-0.33v24.33c-14.67,1.33-24-2-24-2c-9-4.33-17.33-4.67-17.33-4.67
			c-23.56-2.88-24.3,20.96-23.53,31.33h90.14L286.51,536.82z"/>
		<path class="st13" d="M286.51,536.82l-24.67-0.33v24.33c-14.67,1.33-24-2-24-2c-9-4.33-17.33-4.67-17.33-4.67
			c-23.56-2.88-24.3,20.96-23.53,31.33h90.14L286.51,536.82z"/>
		<path class="st13" d="M317.3,535.72l24.4-3.65l3.27,24.11c14.71-0.65,23.51-5.21,23.51-5.21c8.34-5.5,16.55-6.96,16.55-6.96
			c22.96-6.02,26.9,17.5,27.53,27.88l-89.32,12.13L317.3,535.72z"/>
		<line class="st13" x1="286.51" y1="536.82" x2="286.51" y2="585.82"/>
		<path class="st2" d="M286.51,536.82l-24.67-0.33v24.33c-14.67,1.33-24-2-24-2c-9-4.33-17.33-4.67-17.33-4.67
			c-23.56-2.88-24.3,20.96-23.53,31.33h90.14L286.51,536.82z"/>
		<path class="st2" d="M317.3,535.72l24.4-3.65l3.27,24.11c14.71-0.65,23.51-5.21,23.51-5.21c8.34-5.5,16.55-6.96,16.55-6.96
			c22.96-6.02,26.9,17.5,27.53,27.88l-89.32,12.13L317.3,535.72z"/>
		<path class="st2" d="M286.51,536.82l-24.67-0.33v24.33c-14.67,1.33-24-2-24-2c-9-4.33-17.33-4.67-17.33-4.67
			c-23.56-2.88-24.3,20.96-23.53,31.33h90.14L286.51,536.82z"/>
		<path class="st2" d="M317.3,535.72l24.4-3.65l3.27,24.11c14.71-0.65,23.51-5.21,23.51-5.21c8.34-5.5,16.55-6.96,16.55-6.96
			c22.96-6.02,26.9,17.5,27.53,27.88l-89.32,12.13L317.3,535.72z"/>
		<path class="st2" d="M286.51,536.82l-24.67-0.33v24.33c-14.67,1.33-24-2-24-2c-9-4.33-17.33-4.67-17.33-4.67
			c-23.56-2.88-24.3,20.96-23.53,31.33h90.14L286.51,536.82z"/>
		<path class="st2" d="M286.51,536.82l-24.67-0.33v24.33c-14.67,1.33-24-2-24-2c-9-4.33-17.33-4.67-17.33-4.67
			c-23.56-2.88-24.3,20.96-23.53,31.33h90.14L286.51,536.82z"/>
		<path class="st2" d="M317.3,535.72l24.4-3.65l3.27,24.11c14.71-0.65,23.51-5.21,23.51-5.21c8.34-5.5,16.55-6.96,16.55-6.96
			c22.96-6.02,26.9,17.5,27.53,27.88l-89.32,12.13L317.3,535.72z"/>
		<line class="st2" x1="286.51" y1="536.82" x2="286.51" y2="585.82"/>
		<g>
			<rect x="243.17" y="324.15" class="st3" width="43.34" height="212.67"/>
		</g>
		<rect x="243.17" y="324.15" class="st3" width="43.34" height="212.67"/>
		<polygon class="st3" points="331.17,324.15 286.51,324.15 307.84,536.82 352.51,536.82 		"/>
		<rect x="243.17" y="324.15" class="st2" width="43.34" height="212.67"/>
		<polygon class="st2" points="331.17,324.15 286.51,324.15 307.84,536.82 352.51,536.82 		"/>
		<path class="st8" d="M402.72,292.76l-4.62-69.05l-17.34,1.39l-24.21-42.89c-15.94-21.65-41.59-35.7-70.54-35.7
			c-36.07,0-67.04,21.82-80.44,52.98l-0.72,1.89l-31.71,89.53c-2.68,7.55,3.04,15.45,11.05,15.27l29.25-0.05l0.16,108.92h143.46
			V304.18l13,6.66c3.76,2.72,8.44,4.2,13.43,3.88C394.87,313.98,403.49,304.14,402.72,292.76z"/>
		<path class="st2" d="M402.72,292.76l-4.62-69.05l-17.34,1.39l-24.21-42.89c-15.94-21.65-41.59-35.7-70.54-35.7
			c-36.07,0-67.04,21.82-80.44,52.98l-0.72,1.89l-31.71,89.53c-2.68,7.55,3.04,15.45,11.05,15.27l29.25-0.05l0.16,108.92h143.46
			V304.18l13,6.66c3.76,2.72,8.44,4.2,13.43,3.88C394.87,313.98,403.49,304.14,402.72,292.76z"/>
		<path class="st2" d="M356.55,182.21"/>
		<path class="st8" d="M264.89,149.05l21.33,49l18.33-50C304.55,148.05,273.97,145.3,264.89,149.05z"/>
		<path class="st2" d="M264.89,149.05l21.33,49l18.33-50C304.55,148.05,273.97,145.3,264.89,149.05z"/>
		<polygon class="st10" points="271.22,143.88 266.8,153.05 272.8,167.63 286.22,147.8 298.05,165.55 304.55,148.05 296.3,142.8 		
			"/>
		<polygon class="st10" points="280.89,156.71 283.72,162.05 277.8,179.17 286.22,198.05 293.43,179.05 288.22,162.13 
			290.97,156.46 286.22,147.8 		"/>
		<polygon class="st15" points="280.89,156.71 283.72,162.05 277.8,179.17 286.22,198.05 293.43,179.05 288.22,162.13 
			290.97,156.46 286.22,147.8 		"/>
		<polygon class="st2" points="280.89,156.71 283.72,162.05 277.8,179.17 286.22,198.05 293.43,179.05 288.22,162.13 290.97,156.46 
			286.22,147.8 		"/>
		<polyline class="st2" points="239.8,159.55 252.3,179.55 261.3,178.8 255.3,183.3 286.22,226.05 286.22,198.05 		"/>
		<polyline class="st2" points="323.3,155.55 315.3,175.8 305.05,176.8 312.55,180.3 286.22,220.05 		"/>
		<line class="st2" x1="286.22" y1="215.55" x2="286.22" y2="414.55"/>
		<path class="st2" d="M307.21,216.19h32.57v21.48c0,6.71-5.44,12.15-12.15,12.15h-8.27c-6.71,0-12.15-5.44-12.15-12.15V216.19z"/>
		<g>
			<path class="st2" d="M255.01,351.48h-10.61c-8.39,0-15.2-6.8-15.2-15.2v-27.14h41v27.14
				C270.21,344.68,263.41,351.48,255.01,351.48z"/>
			<line class="st2" x1="229.38" y1="324.82" x2="269.88" y2="324.82"/>
		</g>
		<g>
			<path class="st2" d="M330.01,351.48h-10.61c-8.39,0-15.2-6.8-15.2-15.2v-27.14h41v27.14
				C345.21,344.68,338.41,351.48,330.01,351.48z"/>
			<line class="st2" x1="304.38" y1="324.82" x2="344.88" y2="324.82"/>
		</g>
		<polyline class="st2" points="196.1,264.8 236.6,264.8 236.6,306.05 196.1,306.05 		"/>
		<path class="st0" d="M236.73,277.17c0,0,35.38-5.62,30.12,31.38l-30.25,0.25L236.73,277.17z"/>
		<line class="st2" x1="246.6" y1="309.13" x2="246.6" y2="301.71"/>
		<line class="st2" x1="258.44" y1="309.13" x2="258.44" y2="301.71"/>
		<polygon class="st8" points="271.22,143.88 264.89,149.05 272.8,167.63 286.22,147.8 298.05,165.55 304.55,148.05 296.3,142.8 		
			"/>
		<polygon class="st2" points="271.22,143.88 264.89,149.05 272.8,167.63 286.22,147.8 298.05,165.55 304.55,148.05 296.3,142.8 		
			"/>
		<polyline class="st2" points="388.77,224.38 360.77,227.71 368.1,301.05 		"/>
		<line class="st2" x1="356.77" y1="326.38" x2="356.77" y2="218.71"/>
		<polygon class="st0" points="368.35,227.05 367.6,215.05 394.1,216.3 394.1,223.3 		"/>
		<path class="st0" d="M393.24,176.68l0.19,0.03l1.45-13.63c0.14-0.66,0.22-1.34,0.22-2.04c0-5.38-4.37-9.75-9.75-9.75
			s-9.75,4.37-9.75,9.75l-1.33,12.67l0.55,0.09c-10.05,2.62-17.47,11.75-17.47,22.62c0,12.91,10.47,23.38,23.38,23.38
			s23.38-10.47,23.38-23.38C404.1,188.12,399.77,180.83,393.24,176.68z"/>
		<path class="st0" d="M402.68,187.87h-15.25c-4.14,0-7.49-3.36-7.49-7.49v0c0-4.14,3.36-7.49,7.49-7.49h15.25
			c4.14,0,7.49,3.36,7.49,7.49v0C410.18,184.51,406.82,187.87,402.68,187.87z"/>
		<path class="st0" d="M404.6,202.71H388c-4.14,0-7.49-3.36-7.49-7.49v0c0-4.14,3.36-7.49,7.49-7.49h16.6
			c4.14,0,7.49,3.36,7.49,7.49v0C412.1,199.36,408.74,202.71,404.6,202.71z"/>
		<path class="st0" d="M401.97,217.21h-14.13c-4.14,0-7.49-3.36-7.49-7.49v0c0-4.14,3.36-7.49,7.49-7.49h14.13
			c4.14,0,7.49,3.36,7.49,7.49v0C409.46,213.86,406.11,217.21,401.97,217.21z"/>
		<path class="st0" d="M380.44,182.71c0,0,3.67,12.33-9.83,14.83"/>
		<circle class="st0" cx="237.22" cy="109.88" r="8.83"/>
		<circle class="st0" cx="334.05" cy="109.88" r="8.83"/>
		<circle class="st0" cx="285.05" cy="101.97" r="46.75"/>
		<g>
			<ellipse cx="281.2" cy="103.69" rx="1.56" ry="4.44"/>
			<ellipse cx="288.83" cy="103.69" rx="1.56" ry="4.44"/>
			<line class="st2" x1="286.89" y1="94.63" x2="294.39" y2="94.63"/>
			<line class="st2" x1="276.39" y1="94.63" x2="283.89" y2="94.63"/>
			<path class="st2" d="M296.48,115.56c0,0-8.28-2.03-3.99-10.38"/>
			<g>
				<path class="st11" d="M291.1,110.05l-10.83,0.33c0.11,0.85,0.24,1.62,0.37,2.33h10.16C291.05,111.18,291.1,110.05,291.1,110.05z
					"/>
				<path d="M280.64,112.71c1.72,9.02,5.29,8.17,5.29,8.17c3.12-0.33,4.38-5.07,4.87-8.17H280.64z"/>
				<path class="st2" d="M280.64,112.71c1.72,9.02,5.29,8.17,5.29,8.17c3.12-0.33,4.38-5.07,4.87-8.17H280.64z"/>
			</g>
		</g>
		<g>
			<path class="st17" d="M285.84,58.8c0,0,20.33,31.48,47.45,41.66c0.04-0.84,0.06-1.68,0.06-2.53c0-27.45-21.62-49.7-48.29-49.7
				c-26.67,0-48.29,22.25-48.29,49.7c0,1.06,0.04,2.11,0.11,3.16C244.29,98,272.8,84.77,285.84,58.8z"/>
			<path class="st2" d="M285.84,58.8c0,0,20.33,31.48,47.45,41.66c0.04-0.84,0.06-1.68,0.06-2.53c0-27.45-21.62-49.7-48.29-49.7
				c-26.67,0-48.29,22.25-48.29,49.7c0,1.06,0.04,2.11,0.11,3.16C244.29,98,272.8,84.77,285.84,58.8z"/>
		</g>
	</g>
</g>
</svg>
