<svg xmlns="http://www.w3.org/2000/svg" xmlns:xlink="http://www.w3.org/1999/xlink" version="1.1" x="0px" y="0px" viewBox="0 0 100 100" style="enable-background:new 0 0 100 100;" xml:space="preserve"><path d="M62.2,48.9C72,38.5,80.3,29.2,80.8,28.6c1.1-1.6-6.8-10.1-9.2-9.2c-1,0.4-10.3,9-20.6,19C39.9,28,29.9,19.2,29.9,19.2  s-9.7,5.4-9.2,9.2c0.2,1.6,9,10.7,19.2,20.8c-10.6,10.5-19.6,20-19.2,21.1c1,2.4,5.2,8,9.2,9.2C31.6,80,41,70.9,51.3,60.3  c10.3,9.9,19.4,18.3,20.3,19c2.2,1.5,7.3-4.9,9.2-9.2C81.6,68.4,72.8,59.1,62.2,48.9z"></path></svg>