<?xml version="1.0" encoding="utf-8"?>
<!-- Generator: Adobe Illustrator 22.1.0, SVG Export Plug-In . SVG Version: 6.00 Build 0)  -->
<svg version="1.1" id="Layer_1" xmlns="http://www.w3.org/2000/svg" xmlns:xlink="http://www.w3.org/1999/xlink" x="0px" y="0px"
	 viewBox="0 0 820 446" style="enable-background:new 0 0 820 446;" xml:space="preserve">
<style type="text/css">
	.st0{fill:#FFFFFF;stroke:#231F20;stroke-width:7;stroke-miterlimit:10;}
	.st1{fill:none;stroke:#231F20;stroke-width:7;stroke-linecap:round;stroke-linejoin:round;stroke-miterlimit:10;}
	.st2{clip-path:url(#SVGID_4_);fill:#FDF3F1;stroke:#231F20;stroke-width:7;stroke-miterlimit:10;}
	.st3{clip-path:url(#SVGID_6_);}
	.st4{fill:#FFFFFF;}
	.st5{clip-path:url(#SVGID_8_);}
	.st6{fill:none;stroke:#ADFEF2;stroke-width:7;stroke-linecap:round;stroke-linejoin:round;stroke-miterlimit:10;}
	.st7{clip-path:url(#SVGID_10_);}
	.st8{clip-path:url(#SVGID_12_);}
	.st9{clip-path:url(#SVGID_14_);}
	
		.st10{clip-path:url(#SVGID_16_);fill:none;stroke:#ADFEF2;stroke-width:7;stroke-linecap:round;stroke-linejoin:round;stroke-miterlimit:10;}
	
		.st11{clip-path:url(#SVGID_18_);fill:none;stroke:#ADFEF2;stroke-width:7;stroke-linecap:round;stroke-linejoin:round;stroke-miterlimit:10;}
	
		.st12{clip-path:url(#SVGID_20_);fill:none;stroke:#ADFEF2;stroke-width:7;stroke-linecap:round;stroke-linejoin:round;stroke-miterlimit:10;}
	
		.st13{clip-path:url(#SVGID_22_);fill:none;stroke:#ADFEF2;stroke-width:7;stroke-linecap:round;stroke-linejoin:round;stroke-miterlimit:10;}
	
		.st14{clip-path:url(#SVGID_24_);fill:none;stroke:#ADFEF2;stroke-width:7;stroke-linecap:round;stroke-linejoin:round;stroke-miterlimit:10;}
	
		.st15{clip-path:url(#SVGID_26_);fill:none;stroke:#ADFEF2;stroke-width:7;stroke-linecap:round;stroke-linejoin:round;stroke-miterlimit:10;}
	
		.st16{clip-path:url(#SVGID_28_);fill:none;stroke:#ADFEF2;stroke-width:7;stroke-linecap:round;stroke-linejoin:round;stroke-miterlimit:10;}
	.st17{clip-path:url(#SVGID_30_);}
	.st18{fill:none;stroke:#000000;stroke-width:7;stroke-linecap:round;stroke-linejoin:round;stroke-miterlimit:10;}
	.st19{fill:none;stroke:#231F20;stroke-width:7;stroke-miterlimit:10;}
</style>
<g id="Layer_2_1_">
</g>
<g id="Layer_3">
	<g>
		<g>
			<path class="st0" d="M460.6,45.9c0,86.2-84.4,156-188.6,156S83.4,132,83.4,45.9H460.6z"/>
		</g>
		<g>
			<line class="st1" x1="223.2" y1="120.2" x2="398.1" y2="120.2"/>
			<line class="st1" x1="156.9" y1="120.2" x2="190.3" y2="120.2"/>
		</g>
	</g>
</g>
<g id="Layer_4">
</g>
<g id="Layer_5">
</g>
<g id="Layer_6">
	<g>
		
			<ellipse transform="matrix(0.1602 -0.9871 0.9871 0.1602 123.5 488.9569)" class="st1" cx="349.1" cy="171.9" rx="41.3" ry="41.3"/>
		<g>
			<g>
				<defs>
					<circle id="SVGID_2_" cx="670.6" cy="311.1" r="119.1"/>
				</defs>
				<clipPath id="SVGID_4_">
					<use xlink:href="#SVGID_2_"  style="overflow:visible;"/>
				</clipPath>
				<rect x="518.5" y="311.1" class="st2" width="293.1" height="127.5"/>
			</g>
			<g>
				<defs>
					<circle id="SVGID_5_" cx="670.6" cy="311.1" r="119.1"/>
				</defs>
				<clipPath id="SVGID_6_">
					<use xlink:href="#SVGID_5_"  style="overflow:visible;"/>
				</clipPath>
				<g class="st3">
					<path class="st4" d="M613.4,371.8H476.1c-19.7,0-35.8-16-35.8-35.8V163h208.8v173C649.2,355.8,633.2,371.8,613.4,371.8z"/>
					<path class="st4" d="M822.2,371.8H684.9c-19.7,0-35.8-16-35.8-35.8V163H858v173C858,355.8,842,371.8,822.2,371.8z"/>
				</g>
			</g>
			<g>
				<defs>
					<circle id="SVGID_7_" cx="670.6" cy="311.1" r="119.1"/>
				</defs>
				<clipPath id="SVGID_8_">
					<use xlink:href="#SVGID_7_"  style="overflow:visible;"/>
				</clipPath>
				<g class="st5">
					<g>
						<path class="st6" d="M649.2,269.1c0,40.8-33,73.8-73.8,73.8h-61.2c-40.8,0-73.8-33-73.8-73.8"/>
						<path class="st6" d="M858,269.1c0,40.8-33,73.8-73.8,73.8H723c-40.8,0-73.8-33-73.8-73.8"/>
					</g>
				</g>
			</g>
			<g>
				<defs>
					<circle id="SVGID_9_" cx="670.6" cy="311.1" r="119.1"/>
				</defs>
				<clipPath id="SVGID_10_">
					<use xlink:href="#SVGID_9_"  style="overflow:visible;"/>
				</clipPath>
				<g class="st7">
					<g>
						<path class="st6" d="M649.2,232.2c0,40.8-33,73.8-73.8,73.8h-61.2c-40.8,0-73.8-33-73.8-73.8"/>
						<path class="st6" d="M858,232.2c0,40.8-33,73.8-73.8,73.8H723c-40.8,0-73.8-33-73.8-73.8"/>
					</g>
				</g>
			</g>
			<g>
				<defs>
					<circle id="SVGID_11_" cx="670.6" cy="311.1" r="119.1"/>
				</defs>
				<clipPath id="SVGID_12_">
					<use xlink:href="#SVGID_11_"  style="overflow:visible;"/>
				</clipPath>
				<g class="st8">
					<g>
						<path class="st6" d="M649.2,195.3c0,40.8-33,73.8-73.8,73.8h-61.2c-40.8,0-73.8-33-73.8-73.8"/>
						<path class="st6" d="M858,195.3c0,40.8-33,73.8-73.8,73.8H723c-40.8,0-73.8-33-73.8-73.8"/>
					</g>
				</g>
			</g>
			<g>
				<defs>
					<circle id="SVGID_13_" cx="670.6" cy="311.1" r="119.1"/>
				</defs>
				<clipPath id="SVGID_14_">
					<use xlink:href="#SVGID_13_"  style="overflow:visible;"/>
				</clipPath>
				<g class="st9">
					<g>
						<path class="st6" d="M649.2,158.4c0,40.8-33,73.8-73.8,73.8h-61.2c-40.8,0-73.8-33-73.8-73.8"/>
						<path class="st6" d="M858,158.4c0,40.8-33,73.8-73.8,73.8H723c-40.8,0-73.8-33-73.8-73.8"/>
					</g>
				</g>
			</g>
			<g>
				<defs>
					<circle id="SVGID_15_" cx="670.6" cy="311.1" r="119.1"/>
				</defs>
				<clipPath id="SVGID_16_">
					<use xlink:href="#SVGID_15_"  style="overflow:visible;"/>
				</clipPath>
				<line class="st10" x1="559.3" y1="192" x2="559.3" y2="371.8"/>
			</g>
			<g>
				<defs>
					<circle id="SVGID_17_" cx="670.6" cy="311.1" r="119.1"/>
				</defs>
				<clipPath id="SVGID_18_">
					<use xlink:href="#SVGID_17_"  style="overflow:visible;"/>
				</clipPath>
				<line class="st11" x1="591.3" y1="192" x2="591.3" y2="371.8"/>
			</g>
			<g>
				<defs>
					<circle id="SVGID_19_" cx="670.6" cy="311.1" r="119.1"/>
				</defs>
				<clipPath id="SVGID_20_">
					<use xlink:href="#SVGID_19_"  style="overflow:visible;"/>
				</clipPath>
				<line class="st12" x1="622.8" y1="175.2" x2="622.8" y2="368.7"/>
			</g>
			<g>
				<defs>
					<circle id="SVGID_21_" cx="670.6" cy="311.1" r="119.1"/>
				</defs>
				<clipPath id="SVGID_22_">
					<use xlink:href="#SVGID_21_"  style="overflow:visible;"/>
				</clipPath>
				<line class="st13" x1="677.1" y1="192" x2="677.1" y2="368.6"/>
			</g>
			<g>
				<defs>
					<circle id="SVGID_23_" cx="670.6" cy="311.1" r="119.1"/>
				</defs>
				<clipPath id="SVGID_24_">
					<use xlink:href="#SVGID_23_"  style="overflow:visible;"/>
				</clipPath>
				<line class="st14" x1="709.2" y1="192" x2="709.2" y2="371.8"/>
			</g>
			<g>
				<defs>
					<circle id="SVGID_25_" cx="670.6" cy="311.1" r="119.1"/>
				</defs>
				<clipPath id="SVGID_26_">
					<use xlink:href="#SVGID_25_"  style="overflow:visible;"/>
				</clipPath>
				<line class="st15" x1="741.3" y1="192" x2="741.3" y2="371.8"/>
			</g>
			<g>
				<defs>
					<circle id="SVGID_27_" cx="670.6" cy="311.1" r="119.1"/>
				</defs>
				<clipPath id="SVGID_28_">
					<use xlink:href="#SVGID_27_"  style="overflow:visible;"/>
				</clipPath>
				<line class="st16" x1="773.3" y1="192" x2="773.3" y2="371.8"/>
			</g>
			<g>
				<defs>
					<circle id="SVGID_29_" cx="670.6" cy="311.1" r="119.1"/>
				</defs>
				<clipPath id="SVGID_30_">
					<use xlink:href="#SVGID_29_"  style="overflow:visible;"/>
				</clipPath>
				<g class="st17">
					<g>
						<path class="st18" d="M613.4,371.8H476.1c-19.7,0-35.8-16-35.8-35.8V163h208.8v173C649.2,355.8,633.2,371.8,613.4,371.8z"/>
						<path class="st18" d="M822.2,371.8H684.9c-19.7,0-35.8-16-35.8-35.8V163H858v173C858,355.8,842,371.8,822.2,371.8z"/>
					</g>
				</g>
			</g>
			<g>
				<circle id="SVGID_1_" class="st6" cx="670.6" cy="311.1" r="119.1"/>
			</g>
		</g>
		<g>
			<g>
				<circle id="SVGID_3_" class="st19" cx="670.6" cy="311.1" r="119.1"/>
			</g>
		</g>
		<line class="st19" x1="326" y1="206.2" x2="586.8" y2="396.3"/>
		<line class="st19" x1="360.7" y1="132.7" x2="681.4" y2="192.7"/>
	</g>
</g>
</svg>
