<?xml version="1.0" encoding="utf-8"?>
<!-- Generator: Adobe Illustrator 22.1.0, SVG Export Plug-In . SVG Version: 6.00 Build 0)  -->
<svg version="1.1" xmlns="http://www.w3.org/2000/svg" xmlns:xlink="http://www.w3.org/1999/xlink" x="0px" y="0px"
	 viewBox="0 0 1920 1080" style="enable-background:new 0 0 1920 1080;" xml:space="preserve">
<style type="text/css">
	.st0{fill:#FFFFFF;}
	.st1{fill:#FFFFFF;stroke:#231F20;stroke-width:7;stroke-miterlimit:10;}
	.st2{fill:none;stroke:#231F20;stroke-width:7;stroke-linecap:round;stroke-linejoin:round;stroke-miterlimit:10;}
	.st3{clip-path:url(#SVGID_2_);fill:#FDF3F1;stroke:#231F20;stroke-width:7;stroke-miterlimit:10;}
	.st4{clip-path:url(#SVGID_2_);}
	.st5{fill:none;stroke:#ADFEF2;stroke-width:7;stroke-linecap:round;stroke-linejoin:round;stroke-miterlimit:10;}
	
		.st6{clip-path:url(#SVGID_2_);fill:none;stroke:#ADFEF2;stroke-width:7;stroke-linecap:round;stroke-linejoin:round;stroke-miterlimit:10;}
	.st7{fill:none;stroke:#000000;stroke-width:7;stroke-linecap:round;stroke-linejoin:round;stroke-miterlimit:10;}
	.st8{fill:none;stroke:#231F20;stroke-width:7;stroke-miterlimit:10;}
</style>
<g id="Layer_1">
	<rect y="0" class="st0" width="1920" height="1080"/>
</g>
<g id="Layer_2">
</g>
<g id="Layer_3">
	<g>
		<g>
			<path class="st1" d="M1098.6,603.9c0,86.2-84.4,156-188.6,156s-188.6-69.9-188.6-156H1098.6z"/>
		</g>
		<g>
			<line class="st2" x1="861.2" y1="678.2" x2="1036.1" y2="678.2"/>
			<line class="st2" x1="794.9" y1="678.2" x2="828.3" y2="678.2"/>
		</g>
	</g>
</g>
<g id="Layer_4">
</g>
<g id="Layer_5">
</g>
<g id="Layer_6">
	<g>
		<circle class="st2" cx="987.1" cy="729.9" r="41.3"/>
		<g>
			<defs>
				<circle id="SVGID_1_" cx="1308.6" cy="869.1" r="119.1"/>
			</defs>
			<clipPath id="SVGID_2_">
				<use xlink:href="#SVGID_1_"  style="overflow:visible;"/>
			</clipPath>
			<rect x="1156.5" y="869.1" class="st3" width="293.1" height="127.5"/>
			<g class="st4">
				<path class="st0" d="M1251.4,929.8h-137.3c-19.7,0-35.8-16-35.8-35.8V721h208.8v173C1287.2,913.8,1271.2,929.8,1251.4,929.8z"/>
				<path class="st0" d="M1460.2,929.8h-137.3c-19.7,0-35.8-16-35.8-35.8V721H1496v173C1496,913.8,1480,929.8,1460.2,929.8z"/>
			</g>
			<g class="st4">
				<g>
					<path class="st5" d="M1287.2,827.1c0,40.8-33,73.8-73.8,73.8h-61.2c-40.8,0-73.8-33-73.8-73.8"/>
					<path class="st5" d="M1496,827.1c0,40.8-33,73.8-73.8,73.8H1361c-40.8,0-73.8-33-73.8-73.8"/>
				</g>
			</g>
			<g class="st4">
				<g>
					<path class="st5" d="M1287.2,790.2c0,40.8-33,73.8-73.8,73.8h-61.2c-40.8,0-73.8-33-73.8-73.8"/>
					<path class="st5" d="M1496,790.2c0,40.8-33,73.8-73.8,73.8H1361c-40.8,0-73.8-33-73.8-73.8"/>
				</g>
			</g>
			<g class="st4">
				<g>
					<path class="st5" d="M1287.2,753.3c0,40.8-33,73.8-73.8,73.8h-61.2c-40.8,0-73.8-33-73.8-73.8"/>
					<path class="st5" d="M1496,753.3c0,40.8-33,73.8-73.8,73.8H1361c-40.8,0-73.8-33-73.8-73.8"/>
				</g>
			</g>
			<g class="st4">
				<g>
					<path class="st5" d="M1287.2,716.4c0,40.8-33,73.8-73.8,73.8h-61.2c-40.8,0-73.8-33-73.8-73.8"/>
					<path class="st5" d="M1496,716.4c0,40.8-33,73.8-73.8,73.8H1361c-40.8,0-73.8-33-73.8-73.8"/>
				</g>
			</g>
			<line class="st6" x1="1197.3" y1="750" x2="1197.3" y2="929.8"/>
			<line class="st6" x1="1229.3" y1="750" x2="1229.3" y2="929.8"/>
			<line class="st6" x1="1260.8" y1="733.2" x2="1260.8" y2="926.7"/>
			<line class="st6" x1="1315.1" y1="750" x2="1315.1" y2="926.6"/>
			<line class="st6" x1="1347.2" y1="750" x2="1347.2" y2="929.8"/>
			<line class="st6" x1="1379.3" y1="750" x2="1379.3" y2="929.8"/>
			<line class="st6" x1="1411.3" y1="750" x2="1411.3" y2="929.8"/>
			<g class="st4">
				<g>
					<path class="st7" d="M1251.4,929.8h-137.3c-19.7,0-35.8-16-35.8-35.8V721h208.8v173C1287.2,913.8,1271.2,929.8,1251.4,929.8z"
						/>
					<path class="st7" d="M1460.2,929.8h-137.3c-19.7,0-35.8-16-35.8-35.8V721H1496v173C1496,913.8,1480,929.8,1460.2,929.8z"/>
				</g>
			</g>
			
				<use xlink:href="#SVGID_1_"  style="overflow:visible;fill:none;stroke:#ADFEF2;stroke-width:7;stroke-linecap:round;stroke-linejoin:round;stroke-miterlimit:10;"/>
		</g>
		<g>
			<defs>
				<circle id="SVGID_3_" cx="1308.6" cy="869.1" r="119.1"/>
			</defs>
			<clipPath id="SVGID_4_">
				<use xlink:href="#SVGID_3_"  style="overflow:visible;"/>
			</clipPath>
			<use xlink:href="#SVGID_3_"  style="overflow:visible;fill:none;stroke:#231F20;stroke-width:7;stroke-miterlimit:10;"/>
		</g>
		<line class="st8" x1="964" y1="764.2" x2="1224.8" y2="954.3"/>
		<line class="st8" x1="998.7" y1="690.7" x2="1319.4" y2="750.7"/>
	</g>
</g>
</svg>
